<?xml version="1.0" standalone="no"?>
<!DOCTYPE svg PUBLIC "-//W3C//DTD SVG 20010904//EN"
 "http://www.w3.org/TR/2001/REC-SVG-20010904/DTD/svg10.dtd">
<svg version="1.0" xmlns="http://www.w3.org/2000/svg"
 width="359.000000pt" height="359.000000pt" viewBox="0 0 359.000000 359.000000"
 preserveAspectRatio="xMidYMid meet">
<metadata>
Created by potrace 1.11, written by Peter Selinger 2001-2013
</metadata>
<g transform="translate(0.000000,359.000000) scale(0.100000,-0.100000)"
fill="#000000" stroke="none">
<path d="M1750 3571 c-6 -13 -10 -203 -10 -550 0 -468 2 -531 16 -545 12 -12
37 -16 105 -16 144 0 129 -66 129 563 0 409 -3 546 -12 555 -8 8 -48 12 -115
12 -91 0 -103 -2 -113 -19z"/>
<path d="M832 3158 c-40 -40 -72 -79 -72 -88 0 -8 171 -185 381 -392 295 -293
386 -378 406 -378 30 0 153 123 153 154 0 24 -754 776 -779 776 -9 0 -49 -32
-89 -72z"/>
<path d="M2412 2847 c-210 -210 -382 -389 -382 -397 0 -27 132 -150 160 -150
20 0 108 83 403 378 244 244 377 385 377 398 0 26 -129 154 -155 154 -13 0
-157 -137 -403 -383z"/>
<path d="M1830 2310 c0 -5 -12 -10 -26 -10 -14 0 -32 -7 -40 -15 -8 -8 -20
-18 -27 -22 -27 -18 -57 -95 -57 -149 0 -30 4 -54 9 -54 5 0 14 -12 20 -27 13
-32 71 -73 101 -73 11 0 20 -4 20 -10 0 -5 16 -10 35 -10 19 0 35 5 35 10 0 6
15 10 33 10 23 0 38 8 54 28 12 15 31 38 42 51 29 34 30 147 1 181 -11 12 -22
31 -25 41 -4 11 -15 19 -26 19 -17 0 -24 11 -20 33 2 12 -17 8 -22 -5 -3 -10
-9 -10 -26 0 -25 14 -81 16 -81 2z"/>
<path d="M414 2237 c-2 -7 -3 -60 -2 -118 l3 -104 549 -3 c397 -1 553 1 562 9
18 15 20 199 2 217 -18 18 -1107 17 -1114 -1z"/>
<path d="M2205 2240 c-4 -6 -7 -55 -7 -110 0 -55 3 -104 7 -110 4 -7 168 -10
491 -10 l484 0 0 120 0 120 -484 0 c-323 0 -487 -3 -491 -10z"/>
<path d="M1537 1537 c-15 -10 -17 -27 -15 -107 l3 -95 103 -3 102 -3 0 -554 0
-554 -102 -3 -103 -3 -3 -94 c-2 -60 1 -98 9 -107 16 -19 648 -21 667 -2 17
17 16 182 -1 196 -7 6 -53 12 -103 14 l-89 3 -3 649 c-1 459 -5 653 -13 663
-16 18 -427 19 -452 0z"/>
</g>
</svg>
